HIERARCHY
ROOT root
{
	OFFSET	0	13.1	24.9
	CHANNELS 6  Xposition Yposition Zposition Xrotation Yrotation Zrotation
	JOINT spine_1
	{
		OFFSET	0	9.99999	0
		CHANNELS 3  Xrotation Yrotation Zrotation
		JOINT spine_2
		{
			OFFSET	0	112	-10
			CHANNELS 3  Xrotation Yrotation Zrotation
			JOINT spine_3
			{
				OFFSET	0	206.5	19.3
				CHANNELS 3  Xrotation Yrotation Zrotation
				JOINT spine_4
				{
					OFFSET	0	110.4	14.6
					CHANNELS 3  Xrotation Yrotation Zrotation
					JOINT neck_1
					{
						OFFSET	0	71.8	-50.3
						CHANNELS 3  Xrotation Yrotation Zrotation
						JOINT neck_2
						{
							OFFSET	0	86.2	-25.8
							CHANNELS 3  Xrotation Yrotation Zrotation
							JOINT head_ee
							{
								OFFSET	0	179.8	-8.7
								CHANNELS 3  Xrotation Yrotation Zrotation
								End Site
								{
									OFFSET	1	0	0
								}
							}
						}
					}
					JOINT left_clavicle
					{
						OFFSET	-43.2	22.4	-70.8
						CHANNELS 3  Xrotation Yrotation Zrotation
						JOINT left_shoulder
						{
							OFFSET	-93.9	-5.79999	48.7
							CHANNELS 3  Xrotation Yrotation Zrotation
							JOINT left_elbow
							{
								OFFSET	-291.4	-30.8	15.2
								CHANNELS 3  Xrotation Yrotation Zrotation
								JOINT left_lowarm_twist
								{
									OFFSET	-110.7	-3.89999	13.6
									CHANNELS 3  Xrotation Yrotation Zrotation
									JOINT left_hand
									{
										OFFSET	-110.7	-3.89999	13.6
										CHANNELS 3  Xrotation Yrotation Zrotation
										JOINT left_ee
										{
											OFFSET	-80.8	-5.10001	12.1
											CHANNELS 3  Xrotation Yrotation Zrotation
											End Site
											{
												OFFSET	1	0	0
											}
										}
									}
								}
							}
						}
					}
					JOINT right_clavicle
					{
						OFFSET	43.2	22.4	-70.8
						CHANNELS 3  Xrotation Yrotation Zrotation
						JOINT right_shoulder
						{
							OFFSET	93.9	-5.79999	48.7
							CHANNELS 3  Xrotation Yrotation Zrotation
							JOINT right_elbow
							{
								OFFSET	291.4	-30.8	15.2
								CHANNELS 3  Xrotation Yrotation Zrotation
								JOINT right_lowarm_twist
								{
									OFFSET	110.7	-3.89999	13.6
									CHANNELS 3  Xrotation Yrotation Zrotation
									JOINT right_hand
									{
										OFFSET	110.7	-3.89999	13.6
										CHANNELS 3  Xrotation Yrotation Zrotation
										JOINT right_ee
										{
											OFFSET	80.8	-5.10001	12.1
											CHANNELS 3  Xrotation Yrotation Zrotation
											End Site
											{
												OFFSET	1	0	0
											}
										}
									}
								}
							}
						}
					}
				}
			}
		}
	}
	JOINT left_hip
	{
		OFFSET	-82.8	-127.5	0.300001
		CHANNELS 3  Xrotation Yrotation Zrotation
		JOINT left_knee
		{
			OFFSET	-28.2	-396.7	2.2
			CHANNELS 3  Xrotation Yrotation Zrotation
			JOINT left_ankle
			{
				OFFSET	-11.7	-411.3	35.4
				CHANNELS 3  Xrotation Yrotation Zrotation
				JOINT left_toes
				{
					OFFSET	0	-60	-88.6
					CHANNELS 3  Xrotation Yrotation Zrotation
					JOINT left_foot_ee
					{
						OFFSET	-22.5	-16.5	-42.2
						CHANNELS 3  Xrotation Yrotation Zrotation
						End Site
						{
							OFFSET	1	0	0
						}
					}
				}
			}
		}
	}
	JOINT right_hip
	{
		OFFSET	82.8	-127.5	0.300001
		CHANNELS 3  Xrotation Yrotation Zrotation
		JOINT right_knee
		{
			OFFSET	28.2	-396.7	2.2
			CHANNELS 3  Xrotation Yrotation Zrotation
			JOINT right_ankle
			{
				OFFSET	11.7	-411.3	35.4
				CHANNELS 3  Xrotation Yrotation Zrotation
				JOINT right_toes
				{
					OFFSET	0	-60	-88.6
					CHANNELS 3  Xrotation Yrotation Zrotation
					JOINT right_foot_ee
					{
						OFFSET	22.5	-16.5	-42.2
						CHANNELS 3  Xrotation Yrotation Zrotation
						End Site
						{
							OFFSET	1	0	0
						}
					}
				}
			}
		}
	}
}
MOTION
Frames: 13
Frame Time: 0.02
1107.2 761.998 -1604.54 3.87634 53.207 6.2679 -1.53066 0.0760866 -0.685224 -1.53041 0.119534 -0.678994 -1.53168 0.276566 -0.631534 -1.53219 0.173358 -0.667284 -8.57638 -1.90684 6.19807 -8.46848 -7.89778 5.69358 -0.0 0.0 -0.0 7.20512 -11.033 13.7794 9.61098 -3.37549 36.1913 2.05257 -45.4715 0.860191 -3.0163 -0.115994 0.367633 0.0748058 -15.6955 -6.17797 -0.0 0.0 -0.0 10.5172 -9.11046 -19.936 -50.634 55.0176 -37.5626 0.478867 13.345 -0.0560214 -55.7149 4.75516 -4.94792 -0.301501 -27.903 -9.29059 0.0 0.0 0.0 13.1577 32.1445 -17.2542 5.94361 -0.289974 -0.865309 -3.75508 -22.7881 0.648704 31.6178 -0.0 -0.0 -0.0 0.0 -0.0 49.9758 47.6257 -39.3953 -33.8519 0.122638 -5.11889 7.08182 15.7551 1.1109 -4.8381 0.0 0.0 0.0 0.0 0.0 
1104.92 759.851 -1608.5 3.94756 53.1671 6.0411 -1.54346 0.159257 -0.741443 -1.54317 0.206113 -0.729807 -1.54568 0.372867 -0.66036 -1.54619 0.263899 -0.710957 -9.0073 -2.42795 5.98573 -8.91249 -8.69172 5.32849 -0.0 0.0 -0.0 7.35551 -11.2265 14.0917 9.95272 -4.74731 35.7041 2.05415 -45.4934 0.861312 -1.25239 -0.0458073 0.15337 0.226076 -18.2869 -6.26755 -0.0 0.0 -0.0 10.1688 -8.19141 -19.3706 -48.5703 56.609 -39.1273 0.429282 12.0055 -0.0451405 -56.141 4.80711 -4.96493 0.0985689 -28.2818 -11.6405 0.0 0.0 0.0 13.1995 30.9046 -17.3789 2.90336 -0.130403 -0.426364 -2.04965 -20.4397 0.344332 31.5675 -0.0 -0.0 -0.0 0.0 -0.0 49.7679 47.0203 -38.4814 -33.1297 0.0884785 -5.01336 5.28503 20.9941 0.873234 -5.89075 0.0 0.0 0.0 0.0 0.0 
1099.65 763.927 -1617.93 3.83518 53.0941 6.85986 -1.6636 0.0707569 -0.935611 -1.66313 0.130146 -0.929213 -1.66492 0.348034 -0.871353 -1.66592 0.206058 -0.915378 -9.34583 -2.86921 2.10195 -9.3424 -6.82826 1.37633 -0.0 0.0 -0.0 7.49314 -10.638 14.4093 9.36792 -3.74603 35.4918 2.2412 -47.9836 0.997563 -0.943715 -0.0342057 0.115662 -0.0928162 -17.6101 -8.12017 -0.0 0.0 -0.0 10.3711 -10.0404 -19.5497 -49.9105 57.1614 -36.771 0.4085 11.44 -0.0409181 -57.1395 4.92931 -5.00326 0.312832 -27.8715 -12.6976 0.0 0.0 0.0 12.3532 27.9786 -18.5835 1.37835 -0.0592085 -0.203219 0.772679 -21.096 -0.129647 31.9108 -0.0 -0.0 -0.0 0.0 -0.0 55.3833 49.8795 -44.0887 -33.0485 0.0847217 -5.00147 5.21007 25.4333 0.902739 -6.62683 0.0 0.0 0.0 0.0 0.0 
1095.67 767.938 -1621.24 2.95339 53.4872 7.64926 -1.87465 -0.0417433 -1.02259 -1.87406 0.0234079 -1.02317 -1.87397 0.270383 -0.987083 -1.87532 0.111107 -1.01739 -6.52097 -1.6874 -0.453013 -6.52026 -2.7962 -0.784113 -0.0 0.0 -0.0 8.09527 -9.42935 15.7331 9.72333 -2.68177 34.7634 2.45905 -50.6087 1.16275 -1.5869 -0.0586093 0.194166 0.243212 -14.4387 -4.5065 -0.0 0.0 -0.0 9.89352 -10.7437 -18.5773 -48.8591 58.7234 -36.6127 0.393094 11.0194 -0.0379178 -58.3491 5.07819 -5.04682 -0.299658 -28.4986 -9.5204 0.0 0.0 0.0 12.8105 27.139 -18.8452 0.756708 -0.0318989 -0.111739 -0.503277 -20.9813 0.0846522 28.1043 -0.0 -0.0 -0.0 0.0 -0.0 54.5118 51.2272 -43.285 -29.674 -0.0564131 -4.50294 3.73613 26.4295 0.658407 -6.94975 0.0 0.0 0.0 0.0 0.0 
1091.23 764.669 -1622.85 3.71631 53.1727 7.11272 -1.9597 -0.0691548 -1.09878 -1.95903 0.000899551 -1.10096 -1.95843 0.268948 -1.06761 -1.96 0.0969746 -1.09668 -7.84031 -1.70148 0.154668 -7.84098 -3.28269 -0.21229 -0.0 0.0 -0.0 7.8595 -10.5241 15.1955 7.86222 -5.04858 34.947 2.38145 -49.7056 1.10318 -0.605951 -0.0217442 0.0743293 -0.3267 -11.9476 -7.29856 -0.0 0.0 -0.0 9.49766 -9.20317 -17.9998 -48.5245 59.754 -36.0197 0.441415 12.3346 -0.0476984 -58.3979 5.0842 -5.04851 0.176848 -27.5909 -11.8407 0.0 0.0 0.0 11.9421 26.2043 -19.0445 -0.546168 0.0221037 0.0809008 0.509567 -16.9865 -0.082436 29.487 -0.0 -0.0 -0.0 0.0 -0.0 55.76 52.8381 -45.6749 -29.0408 -0.0796094 -4.40853 5.90691 25.5916 1.02277 -7.4649 0.0 0.0 0.0 0.0 0.0 
1086.95 763.94 -1631.42 4.72798 53.7335 6.39093 -1.99247 -0.0895864 -1.13247 -1.99175 -0.0173474 -1.13588 -1.99072 0.260375 -1.10577 -1.99242 0.0824832 -1.13301 -7.37106 -1.19516 -1.4432 -7.36563 -1.18917 -1.6863 -0.0 0.0 -0.0 7.95171 -9.91404 15.4126 7.16095 -4.18162 35.4488 2.56212 -51.7569 1.24306 -2.33253 -0.0880026 0.284829 -0.12648 -11.4553 -5.73011 -0.0 0.0 -0.0 9.30323 -9.07806 -17.6477 -47.5702 60.4241 -36.5299 0.506746 14.0918 -0.062633 -58.1157 5.04938 -5.03866 0.576842 -27.716 -14.1354 0.0 0.0 0.0 12.3295 24.8058 -20.0989 -3.96036 0.14268 0.590926 4.18307 -19.052 -0.68125 30.5109 -0.0 -0.0 -0.0 0.0 -0.0 54.3279 53.596 -44.8877 -27.9391 -0.11747 -4.24368 8.65479 29.1296 1.54896 -7.05053 0.0 0.0 0.0 0.0 0.0 
1083.44 766.151 -1637.1 4.67635 52.6866 6.9849 -1.9849 -0.0457623 -0.977403 -1.98437 0.0165222 -0.978335 -1.98417 0.254663 -0.944756 -1.9854 0.102268 -0.973116 -8.4386 -1.26938 -0.504271 -8.43864 -2.02029 -0.782285 -0.0 0.0 -0.0 7.93741 -9.74237 15.3874 7.56372 -2.86005 35.4566 2.64661 -52.6565 1.30983 -2.40134 -0.0907745 0.293176 -0.287289 -12.0513 -7.07509 -0.0 0.0 -0.0 9.20194 -7.59092 -17.5818 -46.6216 61.2098 -37.4579 0.492064 13.6991 -0.0591072 -58.1712 5.05623 -5.04061 -0.0179051 -26.5921 -10.3969 0.0 0.0 0.0 10.5263 25.1939 -19.9598 -1.18655 0.0470348 0.176014 3.30774 -18.5934 -0.538019 30.3036 -0.0 -0.0 -0.0 0.0 -0.0 53.9553 54.2232 -45.7485 -25.0558 -0.201474 -3.80922 7.34547 28.4283 1.30963 -7.2568 0.0 0.0 0.0 0.0 0.0 
1077.2 763.701 -1644.58 5.18028 53.5684 5.83247 -2.37793 0.00380265 -0.748716 -2.37762 0.0514363 -0.746957 -2.37801 0.236967 -0.710239 -2.37869 0.121827 -0.738748 -7.94542 -0.478827 -1.52839 -7.9388 0.189081 -1.61898 -0.0 0.0 -0.0 8.17345 -9.9397 15.8856 7.4312 -2.79554 35.2145 2.82167 -54.409 1.45064 -1.35027 -0.0495286 0.165315 -0.453536 -11.1054 -7.80167 -0.0 0.0 -0.0 10.0612 -8.00654 -19.1833 -47.8425 60.6733 -35.3591 0.45919 12.8152 -0.0515683 -57.7695 5.00673 -5.02634 -0.0579491 -26.6779 -10.2021 0.0 0.0 0.0 10.2345 23.8276 -19.7087 -3.51589 0.128709 0.524144 3.82468 -18.7529 -0.621947 30.6741 -0.0 -0.0 -0.0 0.0 -0.0 55.5648 55.5529 -47.9986 -26.7687 -0.154207 -4.06783 8.9458 25.9541 1.53721 -5.81913 0.0 0.0 0.0 0.0 0.0 
1074.24 758.032 -1654.18 5.47763 52.7191 5.96507 -2.58063 0.0132912 -0.770634 -2.5803 0.0623002 -0.768227 -2.58082 0.255392 -0.727209 -2.58154 0.137341 -0.758415 -5.57203 -1.12068 -0.897118 -5.56987 -1.39937 -1.11202 -0.0 0.0 -0.0 7.66232 -7.92697 14.8548 6.23847 -2.56734 35.8627 3.06154 -56.5885 1.64835 -3.48102 -0.135582 0.423719 -0.116532 -15.7027 -7.47167 -0.0 0.0 -0.0 9.67918 -9.65687 -18.2949 -47.8604 61.6884 -34.2913 0.587346 16.2227 -0.083711 -59.4637 5.21613 -5.08417 -0.44795 -28.8026 -8.82273 0.0 0.0 0.0 10.7481 23.7209 -21.2528 -5.88156 0.197092 0.880735 6.54494 -16.5151 -1.0348 29.6702 -0.0 -0.0 -0.0 0.0 -0.0 53.0065 53.0132 -46.1471 -27.7195 -0.124635 -4.21076 13.5895 29.2102 2.38098 -7.26786 0.0 0.0 0.0 0.0 0.0 
1069.05 759.862 -1658.4 5.1154 53.3304 5.9997 -2.70788 -0.070372 -0.588007 -2.70769 -0.0328136 -0.591293 -2.70712 0.119725 -0.579975 -2.70759 0.0266277 -0.591604 -7.60454 -0.460069 -0.163394 -7.60452 -0.740425 -0.259701 -0.0 0.0 -0.0 7.45585 -7.73233 14.4255 5.52392 -5.10669 37.1134 2.7286 -53.4954 1.37538 -3.58665 -0.140098 0.436445 0.128153 -17.841 -6.73346 -0.0 0.0 -0.0 9.75319 -9.65775 -18.4331 -48.0618 62.0427 -32.7358 0.702623 19.1909 -0.118784 -59.5096 5.22183 -5.08565 -0.59678 -28.937 -8.06468 0.0 0.0 0.0 11.3305 23.3528 -21.1454 -8.20299 0.249821 1.23305 9.20531 -17.1305 -1.44824 29.7039 -0.0 -0.0 -0.0 0.0 -0.0 53.6405 53.3472 -46.81 -29.4638 -0.0642284 -4.47163 16.5947 28.3603 2.83261 -7.56728 0.0 0.0 0.0 0.0 0.0 
1067.61 759.135 -1661.13 5.45566 53.6109 5.5744 -3.03204 -0.0301566 -0.550241 -3.03187 0.00491724 -0.551044 -3.03172 0.148898 -0.53057 -3.03211 0.0632369 -0.547426 -6.97174 -0.0161044 -2.27592 -6.95625 1.61549 -2.27966 -0.0 0.0 -0.0 6.33356 -7.43821 12.0914 5.66462 -4.64427 41.0277 2.81167 -54.3127 1.44251 -0.823088 -0.0297274 0.100909 -0.0796668 -20.369 -9.19541 -0.0 0.0 -0.0 9.9234 -8.00631 -18.9194 -50.0699 61.5906 -29.5832 0.743947 20.2303 -0.132722 -59.887 5.2687 -5.09765 -0.664173 -26.7488 -6.83864 0.0 0.0 0.0 11.9158 22.73 -21.7386 -10.1109 0.282442 1.52399 8.90947 -17.8634 -1.41187 28.099 -0.0 -0.0 -0.0 0.0 -0.0 52.526 52.2918 -46.2108 -30.3443 -0.0307252 -4.6026 17.6756 26.7602 2.94217 -9.22451 0.0 0.0 0.0 0.0 0.0 
1065.48 759.864 -1670.42 6.48612 53.0902 4.59815 -3.10583 0.0359751 -0.311445 -3.10578 0.0557202 -0.308525 -3.10603 0.134855 -0.283031 -3.10613 0.0884637 -0.300776 -9.71312 -1.59745 0.875339 -9.71414 -3.599 0.465509 -0.0 0.0 -0.0 6.8629 -6.24301 13.2286 2.88621 -4.09875 39.935 2.86668 -54.8366 1.48734 0.131797 0.00462518 -0.0161967 -0.386254 -21.5929 -11.7587 -0.0 0.0 -0.0 9.9499 -9.96536 -18.7682 -50.0652 64.2473 -29.2261 0.75465 20.4973 -0.136446 -60.354 5.32681 -5.11206 -0.725083 -28.5281 -7.20792 0.0 0.0 0.0 11.9589 21.6865 -22.5201 -12.6867 0.311079 1.91813 6.70625 -14.3183 -1.04219 26.0939 -0.0 -0.0 -0.0 0.0 -0.0 52.5974 54.1771 -47.7338 -28.2158 -0.108257 -4.28516 18.1791 27.9952 3.06288 -9.11994 0.0 0.0 0.0 0.0 0.0 
1061.31 758.158 -1677.31 5.87384 52.7378 4.6827 -3.02514 0.0395099 -0.330659 -3.02508 0.0604704 -0.327474 -3.02538 0.143997 -0.300269 -3.02549 0.0947683 -0.319242 -8.65253 -0.313535 0.146319 -8.65253 -0.688841 0.0729078 -0.0 0.0 -0.0 6.50711 -5.25996 12.5222 1.56565 -4.05496 41.8408 2.71504 -53.3588 1.36449 -4.57983 -0.183705 0.555697 0.799473 -24.77 -5.27559 -0.0 0.0 -0.0 10.1024 -8.82347 -19.178 -51.9631 63.6504 -27.4613 0.822096 22.1581 -0.160979 -60.7399 5.37492 -5.12362 -1.3833 -25.5589 -2.32943 0.0 0.0 0.0 11.9601 21.3488 -22.1129 -13.9629 0.318697 2.1138 8.1596 -9.34403 -1.22254 27.0157 -0.0 -0.0 -0.0 0.0 -0.0 52.4635 51.7133 -47.0903 -31.9988 0.037671 -4.84728 19.3116 28.4129 3.24998 -9.47007 0.0 0.0 0.0 0.0 0.0 
